<svg width="150" height="16" viewBox="0 0 150 16" fill="none" xmlns="http://www.w3.org/2000/svg">
<path d="M0.411932 0.454545H3.85653L7.1733 6.71875H7.31534L10.6321 0.454545H14.0767L8.77131 9.85795V15H5.71733V9.85795L0.411932 0.454545ZM28.244 7.72727C28.244 9.31345 27.9433 10.6629 27.342 11.7756C26.7454 12.8883 25.931 13.7382 24.8988 14.3253C23.8713 14.9077 22.716 15.1989 21.4329 15.1989C20.1403 15.1989 18.9802 14.9053 17.9528 14.3182C16.9253 13.7311 16.1133 12.8812 15.5167 11.7685C14.9201 10.6558 14.6218 9.30871 14.6218 7.72727C14.6218 6.1411 14.9201 4.79167 15.5167 3.67898C16.1133 2.56629 16.9253 1.71875 17.9528 1.13636C18.9802 0.549242 20.1403 0.255681 21.4329 0.255681C22.716 0.255681 23.8713 0.549242 24.8988 1.13636C25.931 1.71875 26.7454 2.56629 27.342 3.67898C27.9433 4.79167 28.244 6.1411 28.244 7.72727ZM25.1261 7.72727C25.1261 6.69981 24.9722 5.83333 24.6644 5.12784C24.3614 4.42235 23.9329 3.88731 23.3789 3.52273C22.8249 3.15814 22.1763 2.97585 21.4329 2.97585C20.6895 2.97585 20.0408 3.15814 19.4869 3.52273C18.9329 3.88731 18.502 4.42235 18.1942 5.12784C17.8912 5.83333 17.7397 6.69981 17.7397 7.72727C17.7397 8.75473 17.8912 9.62121 18.1942 10.3267C18.502 11.0322 18.9329 11.5672 19.4869 11.9318C20.0408 12.2964 20.6895 12.4787 21.4329 12.4787C22.1763 12.4787 22.8249 12.2964 23.3789 11.9318C23.9329 11.5672 24.3614 11.0322 24.6644 10.3267C24.9722 9.62121 25.1261 8.75473 25.1261 7.72727ZM40.1669 5.15625C40.0675 4.81061 39.9278 4.50521 39.7479 4.24006C39.5679 3.97017 39.3478 3.7429 39.0874 3.55824C38.8317 3.36884 38.5381 3.22443 38.2067 3.125C37.88 3.02557 37.5178 2.97585 37.12 2.97585C36.3767 2.97585 35.7232 3.16051 35.1598 3.52983C34.6011 3.89915 34.1655 4.43655 33.853 5.14205C33.5405 5.8428 33.3842 6.69981 33.3842 7.71307C33.3842 8.72633 33.5381 9.58807 33.8459 10.2983C34.1536 11.0085 34.5893 11.5507 35.1527 11.9247C35.7161 12.294 36.3814 12.4787 37.1484 12.4787C37.8445 12.4787 38.4387 12.3556 38.9311 12.1094C39.4283 11.8584 39.8071 11.5057 40.0675 11.0511C40.3326 10.5966 40.4652 10.0592 40.4652 9.43892L41.0902 9.53125H37.3402V7.21591H43.4268V9.0483C43.4268 10.3267 43.157 11.4252 42.6172 12.3438C42.0774 13.2576 41.334 13.9631 40.3871 14.4602C39.4401 14.9527 38.3558 15.1989 37.1342 15.1989C35.7706 15.1989 34.5727 14.8982 33.5405 14.2969C32.5083 13.6908 31.7034 12.8314 31.1257 11.7188C30.5528 10.6013 30.2663 9.27557 30.2663 7.74148C30.2663 6.5625 30.4368 5.51136 30.7777 4.58807C31.1233 3.66004 31.6063 2.87405 32.2266 2.23011C32.8468 1.58617 33.5689 1.09612 34.3928 0.759943C35.2166 0.423768 36.1091 0.255681 37.0703 0.255681C37.8942 0.255681 38.6612 0.37642 39.3714 0.617898C40.0817 0.85464 40.7114 1.19081 41.2607 1.62642C41.8146 2.06203 42.2668 2.58049 42.6172 3.18182C42.9676 3.77841 43.1925 4.43655 43.2919 5.15625H40.1669ZM47.7947 15H44.4993L49.5206 0.454545H53.4837L58.4979 15H55.2024L51.5589 3.77841H51.4453L47.7947 15ZM47.5888 9.28267H55.3729V11.6832H47.5888V9.28267ZM67.3846 15H64.0891L69.1104 0.454545H73.0735L78.0877 15H74.7923L71.1488 3.77841H71.0352L67.3846 15ZM67.1786 9.28267H74.9627V11.6832H67.1786V9.28267ZM88.7997 5.15625C88.7003 4.81061 88.5606 4.50521 88.3807 4.24006C88.2008 3.97017 87.9806 3.7429 87.7202 3.55824C87.4645 3.36884 87.1709 3.22443 86.8395 3.125C86.5128 3.02557 86.1506 2.97585 85.7528 2.97585C85.0095 2.97585 84.3561 3.16051 83.7926 3.52983C83.2339 3.89915 82.7983 4.43655 82.4858 5.14205C82.1733 5.8428 82.017 6.69981 82.017 7.71307C82.017 8.72633 82.1709 9.58807 82.4787 10.2983C82.7865 11.0085 83.2221 11.5507 83.7855 11.9247C84.349 12.294 85.0142 12.4787 85.7812 12.4787C86.4773 12.4787 87.0715 12.3556 87.5639 12.1094C88.0611 11.8584 88.4399 11.5057 88.7003 11.0511C88.9654 10.5966 89.098 10.0592 89.098 9.43892L89.723 9.53125H85.973V7.21591H92.0597V9.0483C92.0597 10.3267 91.7898 11.4252 91.25 12.3438C90.7102 13.2576 89.9669 13.9631 89.0199 14.4602C88.0729 14.9527 86.9886 15.1989 85.767 15.1989C84.4034 15.1989 83.2055 14.8982 82.1733 14.2969C81.1411 13.6908 80.3362 12.8314 79.7585 11.7188C79.1856 10.6013 78.8991 9.27557 78.8991 7.74148C78.8991 6.5625 79.0696 5.51136 79.4105 4.58807C79.7562 3.66004 80.2391 2.87405 80.8594 2.23011C81.4796 1.58617 82.2017 1.09612 83.0256 0.759943C83.8494 0.423768 84.742 0.255681 85.7031 0.255681C86.527 0.255681 87.294 0.37642 88.0043 0.617898C88.7145 0.85464 89.3442 1.19081 89.8935 1.62642C90.4474 2.06203 90.8996 2.58049 91.25 3.18182C91.6004 3.77841 91.8253 4.43655 91.9247 5.15625H88.7997ZM94.3697 15V0.454545H104.171V2.99006H97.445V6.45597H103.667V8.99148H97.445V12.4645H104.199V15H94.3697ZM118.782 0.454545V15H116.126L109.798 5.84517H109.691V15H106.616V0.454545H109.315L115.593 9.60227H115.721V0.454545H118.782ZM134.157 5.54688H131.046C130.989 5.14441 130.873 4.78693 130.698 4.47443C130.523 4.1572 130.298 3.88731 130.023 3.66477C129.748 3.44223 129.431 3.27178 129.071 3.15341C128.716 3.03504 128.33 2.97585 127.914 2.97585C127.161 2.97585 126.505 3.16288 125.946 3.53693C125.388 3.90625 124.954 4.44602 124.647 5.15625C124.339 5.86174 124.185 6.71875 124.185 7.72727C124.185 8.7642 124.339 9.63542 124.647 10.3409C124.959 11.0464 125.395 11.5791 125.953 11.9389C126.512 12.2988 127.158 12.4787 127.892 12.4787C128.304 12.4787 128.685 12.4242 129.036 12.3153C129.391 12.2064 129.706 12.0478 129.98 11.8395C130.255 11.6264 130.482 11.3684 130.662 11.0653C130.847 10.7623 130.975 10.4167 131.046 10.0284L134.157 10.0426C134.076 10.7102 133.875 11.3542 133.553 11.9744C133.236 12.59 132.807 13.1416 132.267 13.6293C131.732 14.1122 131.093 14.4957 130.35 14.7798C129.611 15.0592 128.775 15.1989 127.843 15.1989C126.545 15.1989 125.385 14.9053 124.363 14.3182C123.345 13.7311 122.54 12.8812 121.948 11.7685C121.361 10.6558 121.067 9.30871 121.067 7.72727C121.067 6.1411 121.365 4.79167 121.962 3.67898C122.559 2.56629 123.368 1.71875 124.391 1.13636C125.414 0.549242 126.564 0.255681 127.843 0.255681C128.685 0.255681 129.467 0.374053 130.186 0.610795C130.911 0.847538 131.552 1.19318 132.111 1.64773C132.67 2.09754 133.124 2.64915 133.475 3.30256C133.83 3.95597 134.057 4.70407 134.157 5.54688ZM135.51 0.454545H138.954L142.271 6.71875H142.413L145.73 0.454545H149.174L143.869 9.85795V15H140.815V9.85795L135.51 0.454545Z" fill="#272D38"/>
</svg>
